<?xml version="1.0" standalone="no"?>
<!DOCTYPE svg PUBLIC "-//W3C//DTD SVG 20010904//EN"
 "http://www.w3.org/TR/2001/REC-SVG-20010904/DTD/svg10.dtd">
<svg version="1.0" xmlns="http://www.w3.org/2000/svg"
 width="626.000000pt" height="626.000000pt" viewBox="0 0 626.000000 626.000000"
 preserveAspectRatio="xMidYMid meet">
<metadata>
Created by potrace 1.11, written by Peter Selinger 2001-2013
</metadata>
<g transform="translate(0.000000,626.000000) scale(0.100000,-0.100000)"
fill="#000000" stroke="none">
<path d="M3625 5471 c-27 -12 -51 -40 -65 -76 -11 -28 -120 -401 -160 -545
-10 -36 -34 -119 -53 -185 -75 -255 -150 -513 -167 -575 -18 -64 -63 -218
-195 -675 -37 -126 -70 -243 -75 -260 -4 -16 -29 -102 -55 -190 -55 -186 -94
-322 -101 -350 -3 -11 -19 -65 -35 -120 -16 -55 -50 -172 -75 -260 -55 -194
-135 -468 -210 -727 -154 -533 -158 -547 -148 -586 12 -50 50 -73 180 -107
135 -35 166 -36 198 -6 29 27 43 66 121 338 30 106 80 280 111 385 31 106 64
222 74 258 10 36 34 119 53 185 20 66 74 253 121 415 46 162 110 383 141 490
31 107 72 251 92 320 19 69 45 159 58 200 13 41 37 127 55 190 17 63 42 149
55 190 13 41 39 131 58 200 34 119 58 205 254 880 130 451 127 438 117 478
-12 50 -51 73 -175 105 -141 36 -151 37 -174 28z"/>
<path d="M1675 4829 c-41 -12 -1661 -1632 -1671 -1671 -3 -16 -3 -40 1 -55 4
-19 267 -289 818 -841 447 -447 821 -818 831 -824 10 -6 37 -10 59 -10 38 1
48 8 153 113 119 119 135 148 114 205 -6 15 -313 330 -683 700 -370 370 -672
678 -672 683 0 6 302 313 672 683 379 380 676 686 683 702 21 57 5 86 -113
203 -115 113 -139 127 -192 112z"/>
<path d="M4530 4832 c-16 -2 -67 -45 -137 -114 -118 -118 -134 -147 -113 -204
6 -16 309 -326 686 -702 371 -371 674 -678 674 -682 0 -4 -304 -311 -675 -682
-371 -372 -679 -688 -685 -703 -21 -56 -5 -86 114 -204 105 -105 115 -112 153
-113 22 0 49 4 59 10 10 6 384 377 831 824 551 552 814 822 818 841 4 15 4 39
1 55 -10 39 -1630 1659 -1671 1670 -16 4 -41 6 -55 4z"/>
</g>
</svg>
